<svg xmlns="http://www.w3.org/2000/svg" xmlns:xlink="http://www.w3.org/1999/xlink" viewBox="0 0 295.88 256.24"><defs><style>.cls-1{fill:#594a42;}.cls-2{fill:url(#New_Gradient_Swatch_5);}.cls-3{fill:url(#New_Gradient_Swatch_5-2);}.cls-4{fill:none;}</style><linearGradient id="New_Gradient_Swatch_5" x1="-0.69" y1="103.11" x2="267.54" y2="103.11" gradientUnits="userSpaceOnUse"><stop offset="0" stop-color="#88422e"/><stop offset="0.09" stop-color="#a26047"/><stop offset="0.28" stop-color="#d39774"/><stop offset="0.42" stop-color="#f1ba90"/><stop offset="0.5" stop-color="#fcc79b"/><stop offset="0.57" stop-color="#f2bc92"/><stop offset="0.7" stop-color="#d89d79"/><stop offset="0.87" stop-color="#ad6d51"/><stop offset="1" stop-color="#88422e"/></linearGradient><linearGradient id="New_Gradient_Swatch_5-2" x1="-0.69" y1="217.19" x2="267.53" y2="217.19" xlink:href="#New_Gradient_Swatch_5"/></defs><title>Asset 1</title><g id="Layer_2" data-name="Layer 2"><g id="Layer_1-2" data-name="Layer 1"><polygon class="cls-1" points="267 78.11 221.91 0 178.09 0 133 78.11 267 78.11"/><polygon class="cls-2" points="164.16 0 73.97 0 0 128.12 45.09 206.23 164.16 0"/><polygon class="cls-1" points="52.06 218.29 73.97 256.24 164.16 256.24 97.15 140.19 52.06 218.29"/><polygon class="cls-3" points="133 178.14 178.09 256.24 221.91 256.24 267 178.14 133 178.14"/><polygon class="cls-4" points="73.97 256.24 0 128.12 73.97 0 221.91 0 295.88 128.12 221.91 256.24 73.97 256.24"/></g></g></svg>